<svg width="22" height="22" viewBox="0 0 22 22" fill="none" xmlns="http://www.w3.org/2000/svg">
<g id="globe-02">
<path id="Icon" d="M10.9997 1.83331C13.2925 4.34347 14.5955 7.60101 14.6663 11C14.5955 14.3989 13.2925 17.6565 10.9997 20.1666M10.9997 1.83331C8.70683 4.34347 7.40382 7.60101 7.33301 11C7.40382 14.3989 8.70683 17.6565 10.9997 20.1666M10.9997 1.83331C5.93706 1.83331 1.83301 5.93737 1.83301 11C1.83301 16.0626 5.93706 20.1666 10.9997 20.1666M10.9997 1.83331C16.0623 1.83331 20.1663 5.93737 20.1663 11C20.1663 16.0626 16.0623 20.1666 10.9997 20.1666M2.29136 8.24998H19.708M2.29134 13.75H19.708" stroke="#27264A" stroke-width="1.46667" stroke-linecap="round" stroke-linejoin="round"/>
</g>
</svg>
